<?xml version="1.0" standalone="no"?>
<!DOCTYPE svg PUBLIC "-//W3C//DTD SVG 20010904//EN"
 "http://www.w3.org/TR/2001/REC-SVG-20010904/DTD/svg10.dtd">
<svg version="1.0" xmlns="http://www.w3.org/2000/svg"
 width="790.000000pt" height="232.000000pt" viewBox="0 0 790.000000 232.000000"
 preserveAspectRatio="xMidYMid meet">

<g transform="translate(0.000000,232.000000) scale(0.100000,-0.100000)"
fill="#000000" stroke="none">
<path d="M3215 1988 c-8 -18 -53 -132 -101 -253 -47 -121 -110 -281 -139 -355
-29 -74 -85 -216 -124 -315 -38 -99 -118 -301 -176 -448 -58 -147 -105 -272
-105 -277 0 -6 41 -10 94 -10 l95 0 29 77 c17 43 60 157 97 253 37 96 71 183
76 193 9 16 36 17 350 17 316 0 341 -1 346 -17 2 -10 48 -130 102 -268 l97
-250 97 -3 c53 -1 97 0 97 4 0 8 -53 149 -123 329 -30 77 -72 183 -92 235 -20
52 -47 122 -60 155 -13 33 -101 258 -195 500 -94 242 -176 446 -182 452 -7 9
-38 13 -89 13 l-79 0 -15 -32z m136 -290 c17 -57 76 -221 130 -366 55 -144 99
-269 99 -277 0 -13 -38 -15 -270 -15 -212 0 -270 3 -270 13 0 7 43 125 96 262
92 240 131 351 154 443 6 23 15 42 20 42 5 0 24 -46 41 -102z"/>
<path d="M498 1861 c-36 -25 -52 -75 -127 -396 -19 -84 -32 -120 -42 -120 -10
0 -15 16 -17 58 -3 54 -4 57 -28 57 -16 0 -39 -13 -60 -34 -38 -38 -45 -86
-19 -135 16 -33 33 -41 81 -41 20 0 56 -9 82 -20 90 -37 150 -40 776 -40 634
0 755 6 835 41 24 10 65 19 92 19 40 0 51 4 69 27 18 23 21 38 18 81 -6 63
-28 90 -81 99 -32 5 -37 3 -38 -13 0 -11 -1 -37 -2 -59 -1 -28 -6 -40 -17 -40
-11 0 -22 33 -43 125 -45 206 -88 350 -112 378 l-23 27 -662 0 c-544 0 -666
-2 -682 -14z m1107 -46 c110 -8 208 -15 217 -15 20 0 28 -27 59 -179 24 -118
20 -178 -14 -216 -32 -37 -109 -44 -522 -51 -428 -7 -786 6 -839 31 -45 22
-60 64 -51 148 9 83 43 231 58 251 29 39 716 59 1092 31z m-1045 -500 c32 -38
-2 -105 -53 -105 -49 0 -76 69 -41 104 20 20 78 21 94 1z m1316 7 c23 -15 35
-51 24 -72 -12 -22 -41 -40 -64 -40 -23 0 -56 36 -56 62 0 44 59 75 96 50z"/>
<path d="M6190 1611 c-42 -13 -125 -58 -159 -87 -17 -14 -52 -55 -78 -91 -25
-35 -48 -61 -52 -58 -3 4 -10 54 -16 113 l-10 107 -73 0 -73 0 -2 -630 -2
-630 86 -3 86 -3 6 378 c6 414 10 444 69 555 38 71 92 121 167 157 50 23 68
26 171 26 l115 1 11 77 c7 52 7 80 0 87 -12 12 -208 12 -246 1z"/>
<path d="M7035 1604 c-72 -18 -158 -60 -215 -105 -60 -48 -135 -166 -167 -262
-25 -77 -27 -94 -28 -257 0 -198 10 -254 71 -379 65 -133 195 -238 340 -275
78 -20 250 -21 324 -1 203 54 342 201 397 420 24 97 24 353 -1 443 -60 222
-197 364 -401 418 -65 18 -243 16 -320 -2z m303 -161 c62 -19 140 -84 177
-148 88 -149 93 -472 9 -639 -50 -101 -135 -166 -242 -187 -122 -23 -251 7
-333 79 -169 149 -185 627 -27 807 91 104 255 139 416 88z"/>
<path d="M4250 1153 c0 -477 5 -542 47 -635 63 -141 195 -208 412 -208 158 0
267 43 363 142 l57 59 6 -33 c3 -18 9 -58 13 -88 l7 -55 78 -3 77 -3 0 636 0
635 -94 0 -95 0 -3 -417 c-4 -401 -5 -421 -26 -485 -44 -130 -131 -206 -265
-228 -179 -31 -302 19 -359 144 -23 51 -23 54 -26 519 l-3 467 -94 0 -95 0 0
-447z"/>
<path d="M1986 1199 c-14 -11 -26 -28 -26 -38 0 -21 -24 -43 -112 -101 -37
-25 -68 -47 -68 -50 0 -3 10 -10 23 -15 13 -6 23 -21 25 -37 2 -20 10 -28 30
-32 133 -25 142 -28 142 -43 0 -10 -6 -13 -16 -9 -8 3 -45 11 -82 16 -61 10
-71 9 -115 -11 l-49 -23 -41 22 c-58 31 -172 32 -182 2 -6 -19 -15 -20 -340
-20 -324 0 -335 1 -345 20 -9 17 -21 20 -70 20 -41 0 -72 -6 -97 -20 -47 -25
-54 -25 -104 0 -37 19 -46 20 -120 9 -44 -6 -82 -9 -85 -6 -15 14 11 25 76 31
66 7 71 9 86 39 9 17 25 38 36 47 19 15 16 18 -65 73 -56 38 -89 67 -97 88
-13 30 -37 49 -63 49 -24 0 -38 -57 -44 -175 -4 -87 -1 -133 16 -221 16 -87
21 -149 21 -288 0 -175 0 -177 25 -201 19 -20 34 -25 73 -25 73 0 93 20 101
101 l6 64 654 0 654 0 1 -63 c1 -54 5 -67 25 -83 33 -27 110 -26 145 2 l26 20
0 179 c0 138 5 202 20 280 36 182 19 420 -30 420 -4 0 -19 -9 -34 -21z m-413
-460 c12 -7 25 -17 29 -23 14 -21 8 -68 -13 -97 -42 -60 -45 -60 -430 -57
l-351 3 -34 37 c-48 53 -47 109 1 136 28 16 768 17 798 1z m-931 -56 c24 -21
23 -44 -3 -72 -29 -30 -70 -25 -87 12 -12 24 -11 31 2 53 19 28 60 32 88 7z
m1150 0 c24 -21 23 -44 -3 -72 -29 -30 -70 -25 -87 12 -12 24 -11 31 2 53 19
28 60 32 88 7z"/>
<path d="M417 1163 c3 -6 37 -34 77 -62 40 -27 78 -57 85 -65 7 -8 25 -18 41
-21 42 -9 80 -43 80 -70 l0 -25 473 3 c308 1 471 5 470 12 -3 23 21 48 65 67
25 12 67 37 94 57 26 20 68 51 93 69 25 18 45 36 45 40 0 4 -344 7 -764 7
-583 0 -762 -3 -759 -12z"/>
</g>
</svg>
