<?xml version="1.0" encoding="UTF-8"?>
<!DOCTYPE svg PUBLIC "-//W3C//DTD SVG 1.1//EN" "http://www.w3.org/Graphics/SVG/1.1/DTD/svg11.dtd">
<svg xmlns="http://www.w3.org/2000/svg" version="1.1" width="758px" height="274px" style="shape-rendering:geometricPrecision; text-rendering:geometricPrecision; image-rendering:optimizeQuality; fill-rule:evenodd; clip-rule:evenodd" xmlns:xlink="http://www.w3.org/1999/xlink">
<g><path style="opacity:1" fill="none" d="M -0.5,-0.5 C 252.167,-0.5 504.833,-0.5 757.5,-0.5C 757.5,90.8333 757.5,182.167 757.5,273.5C 504.833,273.5 252.167,273.5 -0.5,273.5C -0.5,182.167 -0.5,90.8333 -0.5,-0.5 Z"/></g>
<g><path style="opacity:1" fill="#4c5052" d="M 228.5,88.5 C 239.291,88.5296 249.958,89.5296 260.5,91.5C 255.471,100.895 250.471,110.228 245.5,119.5C 225.326,119.83 205.326,119.497 185.5,118.5C 199.833,108.5 214.167,98.5 228.5,88.5 Z"/></g>
<g><path style="opacity:1" fill="#505455" d="M 178.5,88.5 C 166.167,97.8333 153.833,107.167 141.5,116.5C 138.639,118.073 135.472,118.739 132,118.5C 127.488,118.233 122.988,117.899 118.5,117.5C 116.663,117.361 116.33,116.694 117.5,115.5C 130.378,105.563 144.044,96.896 158.5,89.5C 165.131,88.669 171.798,88.3357 178.5,88.5 Z"/></g>
<g><path style="opacity:1" fill="#f3f3f2" d="M 198.5,87.5 C 184.349,98.1368 170.016,108.637 155.5,119C 160.833,119.667 166.167,119.667 171.5,119C 186.057,108.233 200.724,97.733 215.5,87.5C 220.032,87.1818 224.366,87.5151 228.5,88.5C 214.167,98.5 199.833,108.5 185.5,118.5C 184.957,118.56 184.624,118.893 184.5,119.5C 200.486,120.499 216.486,120.833 232.5,120.5C 221.059,122.258 209.725,124.925 198.5,128.5C 197.646,127.368 197.646,126.035 198.5,124.5C 199.756,124.539 200.756,124.039 201.5,123C 186.504,122.5 171.504,122.333 156.5,122.5C 151.684,121.674 146.684,121.174 141.5,121C 140.833,120.667 140.167,120.333 139.5,120C 140.973,119.29 141.64,118.124 141.5,116.5C 153.833,107.167 166.167,97.8333 178.5,88.5C 185.078,87.5399 191.745,87.2066 198.5,87.5 Z"/></g>
<g><path style="opacity:1" fill="#545657" d="M 198.5,87.5 C 204.167,87.5 209.833,87.5 215.5,87.5C 200.724,97.733 186.057,108.233 171.5,119C 166.167,119.667 160.833,119.667 155.5,119C 170.016,108.637 184.349,98.1368 198.5,87.5 Z"/></g>
<g><path style="opacity:1" fill="#e8f2f5" d="M 141.5,116.5 C 141.64,118.124 140.973,119.29 139.5,120C 140.167,120.333 140.833,120.667 141.5,121C 146.684,121.174 151.684,121.674 156.5,122.5C 143.483,121.972 130.483,121.472 117.5,121C 100.579,127.369 85.7454,136.869 73,149.5C 72.3333,148.833 72.3333,148.167 73,147.5C 83.644,136.267 95.8106,127.1 109.5,120C 110.738,119.31 110.738,118.81 109.5,118.5C 109.56,117.957 109.893,117.624 110.5,117.5C 111.816,120.028 112.983,120.028 114,117.5C 115.616,118.801 117.116,118.801 118.5,117.5C 122.988,117.899 127.488,118.233 132,118.5C 135.472,118.739 138.639,118.073 141.5,116.5 Z"/></g>
<g><path style="opacity:1" fill="#9d9ea0" d="M 495.5,119.5 C 502.313,118.509 509.313,118.175 516.5,118.5C 516.5,131.833 516.5,145.167 516.5,158.5C 515.505,145.677 515.171,132.677 515.5,119.5C 508.833,119.5 502.167,119.5 495.5,119.5 Z"/></g>
<g><path style="opacity:1" fill="#abacad" d="M 543.5,119.5 C 550.313,118.509 557.313,118.175 564.5,118.5C 564.5,141.167 564.5,163.833 564.5,186.5C 557.646,186.824 550.979,186.491 544.5,185.5C 550.833,185.5 557.167,185.5 563.5,185.5C 563.5,163.5 563.5,141.5 563.5,119.5C 556.833,119.5 550.167,119.5 543.5,119.5 Z"/></g>
<g><path style="opacity:1" fill="#494c4e" d="M 495.5,119.5 C 502.167,119.5 508.833,119.5 515.5,119.5C 515.171,132.677 515.505,145.677 516.5,158.5C 518.279,168.064 523.945,171.564 533.5,169C 538.428,167.073 541.594,163.573 543,158.5C 543.5,145.504 543.667,132.504 543.5,119.5C 550.167,119.5 556.833,119.5 563.5,119.5C 563.5,141.5 563.5,163.5 563.5,185.5C 557.167,185.5 550.833,185.5 544.5,185.5C 544.663,183.143 544.497,180.81 544,178.5C 538.307,184.685 531.141,187.685 522.5,187.5C 507.617,186.782 498.783,179.115 496,164.5C 495.5,149.504 495.333,134.504 495.5,119.5 Z"/></g>
<g><path style="opacity:1" fill="#1592d0" d="M 375.5,159.5 C 374.833,156.167 374.167,152.833 373.5,149.5C 373.26,142.28 370.594,136.113 365.5,131C 359.643,128.165 354.81,129.331 351,134.5C 347.273,140.293 344.94,146.626 344,153.5C 343.289,162.194 343.456,170.861 344.5,179.5C 315.887,183.463 287.387,188.13 259,193.5C 257.833,193.167 256.667,192.833 255.5,192.5C 257.783,186.702 259.116,180.702 259.5,174.5C 261.988,163.559 260.154,153.226 254,143.5C 243.894,132.546 234.227,132.879 225,144.5C 220.037,152.099 217.037,160.433 216,169.5C 215.538,179.521 215.538,189.521 216,199.5C 213.061,200.128 210.228,200.795 207.5,201.5C 195.466,201.781 183.466,202.614 171.5,204C 161.167,204.667 150.833,204.667 140.5,204C 109.148,202.18 77.8148,199.514 46.5,196C 43.0073,195.058 39.674,193.725 36.5,192C 33.9829,188.799 34.4829,185.966 38,183.5C 38.3297,176.129 37.8297,168.796 36.5,161.5C 36.383,158.403 37.383,155.736 39.5,153.5C 55.0586,161.897 57.5586,159.564 47,146.5C 45.8129,144.956 45.4795,143.289 46,141.5C 58.051,129.694 72.551,122.861 89.5,121C 96.1506,119.968 102.817,119.135 109.5,118.5C 110.738,118.81 110.738,119.31 109.5,120C 95.8106,127.1 83.644,136.267 73,147.5C 72.3333,148.167 72.3333,148.833 73,149.5C 85.7454,136.869 100.579,127.369 117.5,121C 130.483,121.472 143.483,121.972 156.5,122.5C 170.5,123.167 184.5,123.833 198.5,124.5C 181.195,130.986 164.528,138.819 148.5,148C 165.034,141.236 181.7,134.736 198.5,128.5C 209.725,124.925 221.059,122.258 232.5,120.5C 237.032,120.818 241.366,120.485 245.5,119.5C 250.471,110.228 255.471,100.895 260.5,91.5C 249.958,89.5296 239.291,88.5296 228.5,88.5C 224.366,87.5151 220.032,87.1818 215.5,87.5C 209.833,87.5 204.167,87.5 198.5,87.5C 191.745,87.2066 185.078,87.5399 178.5,88.5C 171.798,88.3357 165.131,88.669 158.5,89.5C 164.003,86.2738 170.003,84.1072 176.5,83C 217.893,76.7952 259.226,77.1285 300.5,84C 317.693,89.4298 334.026,96.7631 349.5,106C 355.437,107.318 361.27,108.818 367,110.5C 371.141,117.786 374.475,125.453 377,133.5C 377.672,142.25 377.172,150.917 375.5,159.5 Z"/></g>
<g><path style="opacity:1" fill="#797d7f" d="M 185.5,118.5 C 205.326,119.497 225.326,119.83 245.5,119.5C 241.366,120.485 237.032,120.818 232.5,120.5C 216.486,120.833 200.486,120.499 184.5,119.5C 184.624,118.893 184.957,118.56 185.5,118.5 Z"/></g>
<g><path style="opacity:1" fill="#f3f5f4" d="M 283.5,88.5 C 301.905,88.1353 318.571,93.302 333.5,104C 326.428,110.364 318.095,114.03 308.5,115C 291.571,117.772 274.571,118.939 257.5,118.5C 260.813,108.013 266.48,99.1793 274.5,92C 277.459,90.3957 280.459,89.2291 283.5,88.5 Z"/></g>
<g><path style="opacity:1" fill="#484c4d" d="M 623.5,118.5 C 623.5,124.167 623.5,129.833 623.5,135.5C 619.958,135.187 616.625,135.521 613.5,136.5C 607.98,137.851 604.147,141.184 602,146.5C 601.5,159.496 601.333,172.496 601.5,185.5C 594.833,185.5 588.167,185.5 581.5,185.5C 581.5,163.5 581.5,141.5 581.5,119.5C 587.833,119.5 594.167,119.5 600.5,119.5C 600.337,121.857 600.503,124.19 601,126.5C 606.998,119.777 614.498,117.111 623.5,118.5 Z"/></g>
<g><path style="opacity:1" fill="#58b2dc" d="M 156.5,122.5 C 171.504,122.333 186.504,122.5 201.5,123C 200.756,124.039 199.756,124.539 198.5,124.5C 184.5,123.833 170.5,123.167 156.5,122.5 Z"/></g>
<g><path style="opacity:1" fill="#494d4f" d="M 658.5,117.5 C 678.804,115.725 692.971,124.059 701,142.5C 703.674,173.93 689.174,188.764 657.5,187C 635.599,180.744 626.099,166.244 629,143.5C 633.842,129.163 643.675,120.497 658.5,117.5 Z"/></g>
<g><path style="opacity:1" fill="#b4b5b6" d="M 623.5,118.5 C 624.49,124.31 624.823,130.31 624.5,136.5C 620.833,136.5 617.167,136.5 613.5,136.5C 616.625,135.521 619.958,135.187 623.5,135.5C 623.5,129.833 623.5,124.167 623.5,118.5 Z"/></g>
<g><path style="opacity:1" fill="#e4f1f4" d="M 198.5,124.5 C 197.646,126.035 197.646,127.368 198.5,128.5C 181.7,134.736 165.034,141.236 148.5,148C 164.528,138.819 181.195,130.986 198.5,124.5 Z"/></g>
<g><path style="opacity:1" fill="#f1f2f1" d="M 660.5,134.5 C 676.812,134.317 683.646,142.317 681,158.5C 676.549,169.474 668.716,172.974 657.5,169C 649.889,163.441 647.056,155.941 649,146.5C 651.019,140.65 654.852,136.65 660.5,134.5 Z"/></g>
<g><path style="opacity:1" fill="#4f5456" d="M 257.5,165.5 C 257.679,177.117 255.179,188.117 250,198.5C 246.188,205.74 240.188,209.073 232,208.5C 225.831,208.028 219.664,207.528 213.5,207C 212.627,205.955 211.627,205.122 210.5,204.5C 213.507,202.825 216.84,202.159 220.5,202.5C 219.445,190.855 219.279,179.189 220,167.5C 221.635,159.899 224.635,152.899 229,146.5C 237.426,138.181 245.093,138.848 252,148.5C 255.143,153.761 256.976,159.428 257.5,165.5 Z"/></g>
<g><path style="opacity:1" fill="#f0f4f4" d="M 207.5,139.5 C 209.355,139.272 210.188,139.939 210,141.5C 202.933,150.277 194.099,156.443 183.5,160C 169.864,161.574 156.197,162.24 142.5,162C 163.874,153.296 185.541,145.796 207.5,139.5 Z"/></g>
<g><path style="opacity:1" fill="#4f5456" d="M 357.5,133.5 C 363.362,133.189 367.196,135.856 369,141.5C 372.497,153.91 372.163,166.244 368,178.5C 366.533,181.266 364.7,183.766 362.5,186C 354.605,187.601 346.605,187.934 338.5,187C 336.697,186.363 335.364,185.197 334.5,183.5C 338.476,182.614 342.476,181.948 346.5,181.5C 343.622,166.009 345.789,151.342 353,137.5C 354.397,135.93 355.897,134.596 357.5,133.5 Z"/></g>
<g><path style="opacity:1" fill="#e9eef0" d="M 259.5,174.5 C 259.666,169.489 259.499,164.489 259,159.5C 258.809,161.708 258.309,163.708 257.5,165.5C 256.976,159.428 255.143,153.761 252,148.5C 245.093,138.848 237.426,138.181 229,146.5C 224.635,152.899 221.635,159.899 220,167.5C 219.279,179.189 219.445,190.855 220.5,202.5C 216.84,202.159 213.507,202.825 210.5,204.5C 209.226,203.811 209.226,202.977 210.5,202C 209.552,201.517 208.552,201.351 207.5,201.5C 210.228,200.795 213.061,200.128 216,199.5C 215.538,189.521 215.538,179.521 216,169.5C 217.037,160.433 220.037,152.099 225,144.5C 234.227,132.879 243.894,132.546 254,143.5C 260.154,153.226 261.988,163.559 259.5,174.5 Z"/></g>
<g><path style="opacity:1" fill="#9dd2e6" d="M 144.5,149.5 C 146.379,149.393 146.712,149.893 145.5,151C 138.03,154.27 137.697,153.77 144.5,149.5 Z"/></g>
<g><path style="opacity:1" fill="#41b4e4" d="M 373.5,149.5 C 374.167,152.833 374.833,156.167 375.5,159.5C 375.313,161.564 374.813,163.564 374,165.5C 373.501,160.177 373.334,154.844 373.5,149.5 Z"/></g>
<g><path style="opacity:1" fill="#464a4d" d="M 489.5,184.5 C 482.352,185.492 475.019,185.825 467.5,185.5C 465.456,179.741 463.122,174.074 460.5,168.5C 446.85,167.501 433.183,167.167 419.5,167.5C 417.504,173.155 415.504,178.822 413.5,184.5C 406.068,185.811 398.735,185.811 391.5,184.5C 403.988,156.188 416.488,127.855 429,99.5C 436.333,98.1667 443.667,98.1667 451,99.5C 463.845,127.855 476.679,156.188 489.5,184.5 Z"/></g>
<g><path style="opacity:1" fill="#7d8184" d="M 452.5,150.5 C 453.043,150.56 453.376,150.893 453.5,151.5C 444.675,152.821 436.009,152.821 427.5,151.5C 436.017,151.826 444.35,151.493 452.5,150.5 Z"/></g>
<g><path style="opacity:1" fill="#f1f2f1" d="M 452.5,150.5 C 444.35,151.493 436.017,151.826 427.5,151.5C 431.367,141.071 435.534,130.737 440,120.5C 444.455,130.407 448.622,140.407 452.5,150.5 Z"/></g>
<g><path style="opacity:1" fill="#e9f1f2" d="M 333.5,135.5 C 332.815,144.083 330.315,152.417 326,160.5C 324.5,162 323,163.5 321.5,165C 303.693,171.281 285.693,176.615 267.5,181C 284.432,174.199 301.098,166.866 317.5,159C 324.461,152.235 329.794,144.402 333.5,135.5 Z"/></g>
<g><path style="opacity:1" fill="#a1a2a4" d="M 600.5,119.5 C 594.167,119.5 587.833,119.5 581.5,119.5C 581.5,141.5 581.5,163.5 581.5,185.5C 588.167,185.5 594.833,185.5 601.5,185.5C 594.687,186.491 587.687,186.825 580.5,186.5C 580.5,163.833 580.5,141.167 580.5,118.5C 587.354,118.176 594.021,118.509 600.5,119.5 Z"/></g>
<g><path style="opacity:1" fill="#8bcbe5" d="M 59.5,184.5 C 57.2646,184.205 55.2646,184.539 53.5,185.5C 52.9569,185.44 52.6236,185.107 52.5,184.5C 54.9732,183.203 57.3066,183.203 59.5,184.5 Z"/></g>
<g><path style="opacity:1" fill="#a5a9ab" d="M 391.5,184.5 C 398.735,185.811 406.068,185.811 413.5,184.5C 410.062,185.823 406.229,186.49 402,186.5C 398.167,186.167 394.333,185.833 390.5,185.5C 390.624,184.893 390.957,184.56 391.5,184.5 Z"/></g>
<g><path style="opacity:1" fill="#9c9ea0" d="M 489.5,184.5 C 490.043,184.56 490.376,184.893 490.5,185.5C 482.677,186.82 475.01,186.82 467.5,185.5C 475.019,185.825 482.352,185.492 489.5,184.5 Z"/></g>
<g><path style="opacity:1" fill="#e9f3f6" d="M 53.5,185.5 C 55.2646,184.539 57.2646,184.205 59.5,184.5C 89.1007,187.549 118.767,189.549 148.5,190.5C 146.167,191.167 143.833,191.833 141.5,192.5C 124.497,192.667 107.497,192.5 90.5,192C 77.8607,191.304 65.5274,189.138 53.5,185.5 Z"/></g>
<g><path style="opacity:1" fill="#6ebadc" d="M 148.5,190.5 C 149.756,190.461 150.756,190.961 151.5,192C 148.183,192.498 144.85,192.665 141.5,192.5C 143.833,191.833 146.167,191.167 148.5,190.5 Z"/></g>
</svg>
